<?xml version="1.0" encoding="UTF-8"?>
<svg id="Layer_2" data-name="Layer 2" xmlns="http://www.w3.org/2000/svg" viewBox="0 0 812.67 890.4">
  <defs>
    <style>
      .cls-1 {
        fill: #e9123c;
      }

      .cls-2 {
        fill: #48d84b;
      }

      .cls-3 {
        fill: #ffd600;
      }

      .cls-4 {
        fill: #13ace8;
      }
    </style>
  </defs>
  <g id="Layer_1-2" data-name="Layer 1">
    <g>
      <path class="cls-1" d="M615.13,427.52c-26.86,27.8-56.36,53.99-88.42,78.01-4.92,3.69-9.93,7.38-14.94,10.97-38.49,27.42-78.87,50.87-120.28,69.79-36.78,17.02-74.61,30.45-112.81,40.57-10.31-36.88-17.68-75.27-21.56-114.7-2.27-22.98-3.31-46.05-3.31-69.12,0-19.1.76-38.3,2.27-57.3v-.09c1.7-21.84,4.44-44.16,8.13-66.29,4.82-28.75,11.35-57.02,19.29-84.44,37.73,9.74,75.37,22.79,111.96,39.43l.09.09c46.52,20.99,91.73,47.66,134.37,79.34,4.92,3.5,9.55,7.09,14.37,10.87,25.06,19.48,48.79,40.57,70.83,62.88Z"/>
      <path class="cls-4" d="M231.2,223.45c-8.04,28.37-14.66,57.49-19.57,87.09-3.97,23.64-6.9,47.56-8.7,70.92-2.27,27.9-2.93,55.89-2.17,83.88-.09-.09-.28-.19-.38-.28-3.78-2.74-7.38-5.67-11.06-8.6-2.93-2.27-6.05-4.54-8.89-6.9-3.59-3.03-7-6.34-10.4-9.46-2.93-2.65-5.96-5.2-8.7-7.94-.85-.85-1.7-1.7-2.84-2.74-60.71-60.71-94.47-137.87-92.67-209.93,52.86-7.09,108.27-5.77,165.39,3.97Z"/>
      <path class="cls-2" d="M517.44,577.21c-1.23,20.14-4.92,40.76-10.78,61.09v.09c-9.83,34.52-25.53,67.52-46.81,98.25-23.45,33.85-52.29,62.79-84.35,84.73-32.81-41.23-60.14-90.12-80.38-143.45,40.19-10.87,80-25.34,118.68-43.21,10.12-4.63,20.14-9.55,30.16-14.66,3.12-1.61,6.24-3.31,9.36-5.01,7-3.69,13.9-7.47,20.9-11.44,3.4-1.89,6.81-3.88,10.21-5.96,7-4.07,13.9-8.32,20.8-12.67,2.93-1.89,5.77-3.59,8.7-5.48,1.13-.76,2.36-1.51,3.5-2.27Z"/>
      <path class="cls-3" d="M742.22,238.58c-18.82,34.8-56.64,102.32-91.73,148.65-22.98-22.98-47.56-44.63-73.38-64.68-5.11-3.97-10.21-7.85-15.51-11.73-31.87-23.64-65.25-44.73-99.48-62.98,1.13-.57,2.27-1.23,3.4-1.8,6.15-3.03,12.48-5.77,18.91-8.51,3.03-1.23,6.05-2.65,9.17-3.88,9.65-3.69,19.48-7,29.6-9.93,3.97-1.04,7.94-2.18,12.29-3.22,72.91-17.68,148.27-10.87,206.71,18.06Z"/>
      <g>
        <path d="M766.05,535.41c-2.18-.28-4.35-.47-6.52-.47-17.78,0-33.19,10.12-40.85,24.87,6.24,10.59,12.2,21.28,17.78,32.06l47.38-24.59c-5.58-10.78-11.44-21.37-17.78-31.87ZM315.18,32.43c-6.9,11.06-13.52,22.51-19.86,34.04,7.47,15.13,23.07,25.44,41.04,25.44,2.08,0,4.07-.09,6.05-.38,5.67-10.5,11.73-20.8,17.97-30.92l-45.2-28.18ZM82.27,646.14c-10.87-.76-21.75-1.89-32.43-3.4l-7.38,52.86c13.81,1.89,27.71,3.31,41.7,4.26,5.01-7.28,7.85-16.08,7.85-25.53,0-10.59-3.59-20.43-9.74-28.18Z"/>
        <path d="M812.67,218.72l-20.43-13.05c-73.85-47.19-172.01-60.71-269.12-36.97-4.73,1.13-9.36,2.36-14.47,3.78-10.21,2.84-20.14,6.15-29.98,9.83-3.22,1.13-6.24,2.55-9.36,3.78-6.52,2.55-12.95,5.3-19.29,8.23-3.59,1.61-7.09,3.5-10.69,5.3-5.58,2.84-11.16,5.67-16.64,8.79-3.59,2.08-7.19,4.25-10.68,6.43-2.74,1.61-5.58,3.12-8.23,4.92-33.95-14.66-68.65-26.67-103.55-35.84,12.01-32.25,26-63.07,42.17-92.39-1.99.28-3.97.38-6.05.38-17.97,0-33.57-10.31-41.04-25.44-18.25,33.57-34.04,69.03-47.28,105.91-73.38-13.33-144.59-14.18-212.01-2.27l-19.48,3.5-2.36,19.67c-11.06,93.62,28.75,196.03,106.67,273.85l3.03,3.03c6.62,6.52,13.52,12.67,20.52,18.72,2.36,1.99,4.73,3.78,7.09,5.67,4.82,3.88,9.65,7.75,14.56,11.44,2.93,2.08,5.86,4.07,8.79,6.15,4.63,3.21,9.27,6.34,14.09,9.36,3.12,1.99,6.34,3.88,9.55,5.77,2.36,1.42,4.63,2.93,7.09,4.35,4.26,36.5,11.25,72.34,20.8,106.95-49.27,8.7-97.49,11.25-144.11,7.56,6.15,7.75,9.74,17.59,9.74,28.18,0,9.46-2.84,18.25-7.85,25.53,12.95.85,26,1.23,39.15,1.23,39.15,0,79.05-3.97,119.43-11.54,25.53,69.88,62.22,133.33,107.33,184.4l14.37,16.45,18.91-10.97c46.34-26.76,87.94-65.63,120.28-112.43,24.59-35.46,42.93-73.85,54.28-113.95,10.97-38.01,15.32-77.07,12.67-114.04,28.94-22.6,56.17-46.71,80.95-72.15,25.34,29.5,47.75,60.61,67.14,92.95,7.66-14.75,23.07-24.87,40.85-24.87,2.17,0,4.35.19,6.52.47-22.32-38.01-48.79-74.42-78.77-108.75,53.62-67.99,111.68-181.18,114.33-186.38l11.06-21.56ZM200.76,465.34c-.09-.09-.28-.19-.38-.28-3.78-2.74-7.38-5.67-11.06-8.6-2.93-2.27-6.05-4.54-8.89-6.9-3.59-3.03-7-6.34-10.4-9.46-2.93-2.65-5.96-5.2-8.7-7.94-.85-.85-1.7-1.7-2.84-2.74-60.71-60.71-94.47-137.87-92.67-209.93,52.86-7.09,108.27-5.77,165.39,3.97-8.04,28.37-14.66,57.49-19.57,87.09-3.97,23.64-6.9,47.56-8.7,70.92-2.27,27.9-2.93,55.89-2.17,83.88ZM506.66,638.29v.09c-9.83,34.52-25.53,67.52-46.81,98.25-23.45,33.85-52.29,62.79-84.35,84.73-32.81-41.23-60.14-90.12-80.38-143.45,40.19-10.87,80-25.34,118.68-43.21,10.12-4.63,20.14-9.55,30.16-14.66,3.12-1.61,6.24-3.31,9.36-5.01,7-3.69,13.9-7.47,20.9-11.44,3.4-1.89,6.81-3.88,10.21-5.96,7-4.07,13.9-8.32,20.8-12.67,2.93-1.89,5.77-3.59,8.7-5.48,1.13-.76,2.36-1.51,3.5-2.27-1.23,20.14-4.92,40.76-10.78,61.09ZM526.71,505.53c-4.92,3.69-9.93,7.38-14.94,10.97-38.49,27.42-78.87,50.87-120.28,69.79-36.78,17.02-74.61,30.45-112.81,40.57-10.31-36.88-17.68-75.27-21.56-114.7-2.27-22.98-3.31-46.05-3.31-69.12,0-19.1.76-38.3,2.27-57.3v-.09c1.7-21.84,4.44-44.16,8.13-66.29,4.82-28.75,11.35-57.02,19.29-84.44,37.73,9.74,75.37,22.79,111.96,39.43l.09.09c46.52,20.99,91.73,47.66,134.37,79.34,4.92,3.5,9.55,7.09,14.37,10.87,25.06,19.48,48.79,40.57,70.83,62.88-26.86,27.8-56.36,53.99-88.42,78.01ZM650.49,387.23c-22.98-22.98-47.56-44.63-73.38-64.68-5.11-3.97-10.21-7.85-15.51-11.73-31.87-23.64-65.25-44.73-99.48-62.98,1.13-.57,2.27-1.23,3.4-1.8,6.15-3.03,12.48-5.77,18.91-8.51,3.03-1.23,6.05-2.65,9.17-3.88,9.65-3.69,19.48-7,29.6-9.93,3.97-1.04,7.94-2.18,12.29-3.22,72.91-17.68,148.27-10.87,206.71,18.06-18.82,34.8-56.64,102.32-91.73,148.65Z"/>
        <path class="cls-4" d="M382.31,45.96c0,23.36-17.31,42.65-39.91,45.58-1.99.28-3.97.38-6.05.38-17.97,0-33.57-10.31-41.04-25.44-3.12-6.15-4.92-13.14-4.92-20.52,0-25.34,20.61-45.96,45.96-45.96s45.96,20.61,45.96,45.96Z"/>
        <path class="cls-3" d="M805.58,580.9c0,25.44-20.61,45.96-46.05,45.96s-45.96-20.52-45.96-45.96c0-7.56,1.8-14.75,5.11-21.09,7.66-14.75,23.07-24.87,40.85-24.87,2.17,0,4.35.19,6.52.47,22.32,3.12,39.53,22.22,39.53,45.48Z"/>
        <path class="cls-2" d="M92.01,674.32c0,9.46-2.84,18.25-7.85,25.53-8.13,12.29-22.22,20.43-38.2,20.43-25.34,0-45.96-20.52-45.96-45.96s20.61-45.96,45.96-45.96c14.85,0,27.99,7,36.31,17.78,6.15,7.75,9.74,17.59,9.74,28.18Z"/>
      </g>
    </g>
  </g>
</svg>