<?xml version="1.0" encoding="UTF-8"?>
<svg id="Layer_2" data-name="Layer 2" xmlns="http://www.w3.org/2000/svg" viewBox="0 0 80.22 87.89">
  <defs>
    <style>
      .cls-1 {
        fill: #fff;
      }
    </style>
  </defs>
  <g id="Layer_1-2" data-name="Layer 1">
    <g>
      <path class="cls-1" d="M8.12,63.78c-1.07-.08-2.14-.19-3.2-.34l-.72,5.22c1.36.19,2.73.33,4.11.42.5-.72.78-1.59.78-2.52,0-1.04-.36-2.01-.97-2.78ZM31.11,3.2c-.68,1.1-1.33,2.22-1.96,3.36.74,1.5,2.28,2.51,4.05,2.51.21,0,.41,0,.6-.03.56-1.04,1.16-2.06,1.78-3.06l-4.47-2.78ZM75.62,52.85c-.22-.03-.43-.05-.65-.05-1.75,0-3.27,1-4.03,2.46.62,1.04,1.2,2.1,1.76,3.16l4.67-2.42c-.55-1.07-1.13-2.11-1.75-3.15Z"/>
      <path class="cls-1" d="M80.22,21.59l-2.02-1.29c-7.29-4.65-16.98-5.99-26.56-3.65-.47.12-.93.24-1.43.38-1.01.28-1.99.6-2.96.97-.32.11-.61.25-.92.37-.65.25-1.28.52-1.91.81-.35.16-.7.35-1.05.53-.55.28-1.1.56-1.64.86-.36.21-.71.42-1.06.64-.27.16-.55.31-.81.48-3.35-1.44-6.78-2.63-10.22-3.53,1.18-3.19,2.57-6.23,4.16-9.12-.19.03-.39.03-.6.03-1.77,0-3.31-1.01-4.05-2.51-1.8,3.32-3.36,6.82-4.66,10.46-7.25-1.32-14.27-1.4-20.93-.23l-1.92.35-.24,1.94c-1.09,9.24,2.84,19.35,10.53,27.03l.3.3c.65.64,1.34,1.25,2.03,1.85.23.19.46.37.7.56.47.38.95.76,1.43,1.13.29.2.58.4.87.6.46.32.92.63,1.39.93.31.19.63.38.95.57.23.14.45.29.7.43.42,3.6,1.11,7.14,2.05,10.55-4.86.86-9.62,1.11-14.23.75.61.77.97,1.74.97,2.78,0,.93-.28,1.8-.78,2.52,1.28.09,2.57.12,3.87.12,3.86,0,7.8-.39,11.78-1.14,2.52,6.9,6.15,13.16,10.6,18.2l1.42,1.63,1.86-1.08c4.58-2.65,8.68-6.48,11.88-11.1,2.42-3.5,4.23-7.29,5.35-11.25,1.09-3.75,1.52-7.61,1.25-11.26,2.86-2.23,5.55-4.61,7.99-7.12,2.51,2.91,4.72,5.99,6.63,9.18.76-1.46,2.28-2.46,4.03-2.46.22,0,.43.02.65.05-2.21-3.75-4.82-7.35-7.78-10.73,5.29-6.72,11.03-17.89,11.29-18.4l1.09-2.13ZM20.89,30.65c-.39,2.34-.68,4.7-.86,7-.22,2.76-.28,5.52-.21,8.28-.01,0-.03-.02-.04-.02-.37-.28-.73-.56-1.09-.85-.29-.23-.6-.45-.88-.69-.35-.29-.69-.62-1.02-.93-.29-.26-.59-.51-.86-.78-.09-.09-.17-.17-.28-.27-5.99-6-9.33-13.61-9.15-20.72,5.22-.7,10.69-.57,16.33.39-.8,2.8-1.45,5.67-1.94,8.59ZM50.01,63h0c-.97,3.42-2.52,6.68-4.62,9.71-2.31,3.34-5.16,6.2-8.32,8.37-3.24-4.07-5.94-8.9-7.94-14.16,3.97-1.08,7.9-2.51,11.72-4.27,1-.46,1.99-.94,2.98-1.45.3-.16.61-.32.92-.49.69-.37,1.37-.74,2.06-1.13.34-.19.68-.38,1.01-.59.69-.4,1.37-.82,2.05-1.25.29-.19.57-.35.86-.54.12-.08.24-.15.35-.22-.12,1.98-.49,4.02-1.07,6.02ZM51.99,49.9c-.48.36-.98.73-1.47,1.08-3.8,2.71-7.79,5.02-11.87,6.89-3.63,1.68-7.37,3.01-11.14,4.01-1.02-3.64-1.74-7.43-2.13-11.33-.22-2.26-.32-4.54-.32-6.82,0-1.88.07-3.78.22-5.66.17-2.16.44-4.36.8-6.55.48-2.84,1.12-5.63,1.91-8.33,3.72.96,7.44,2.25,11.05,3.89h.01c4.59,2.08,9.05,4.71,13.26,7.84.49.34.94.7,1.42,1.07,2.47,1.93,4.82,4.01,6.99,6.21-2.65,2.74-5.56,5.33-8.73,7.7ZM64.21,38.22c-2.27-2.26-4.69-4.4-7.24-6.38-.51-.39-1.01-.78-1.53-1.16-3.15-2.33-6.44-4.41-9.82-6.21.11-.06.22-.13.33-.18.61-.3,1.24-.57,1.87-.84.3-.12.6-.26.91-.38.95-.37,1.92-.69,2.92-.98.39-.11.78-.22,1.21-.32,7.2-1.75,14.64-1.08,20.4,1.78-1.85,3.44-5.59,10.1-9.05,14.67Z"/>
      <path class="cls-1" d="M37.74,4.54c0,2.31-1.71,4.21-3.94,4.5-.2.03-.39.04-.6.04-1.77,0-3.31-1.02-4.05-2.51-.31-.61-.49-1.3-.49-2.03,0-2.5,2.03-4.54,4.54-4.54s4.54,2.03,4.54,4.54Z"/>
      <path class="cls-1" d="M79.51,57.34c0,2.51-2.03,4.54-4.55,4.54s-4.54-2.03-4.54-4.54c0-.75.18-1.46.5-2.08.76-1.46,2.28-2.45,4.03-2.45.21,0,.43.02.64.05,2.2.31,3.9,2.19,3.9,4.49Z"/>
      <path class="cls-1" d="M9.08,66.56c0,.93-.28,1.8-.77,2.52-.8,1.21-2.19,2.02-3.77,2.02-2.5,0-4.54-2.03-4.54-4.54s2.03-4.54,4.54-4.54c1.47,0,2.76.69,3.58,1.75.61.77.96,1.74.96,2.78Z"/>
    </g>
  </g>
</svg>