<?xml version="1.0" encoding="UTF-8"?>
<svg id="Layer_2" data-name="Layer 2" xmlns="http://www.w3.org/2000/svg" viewBox="0 0 199.44 87.89">
  <defs>
    <style>
      .cls-1 {
        fill: #e9123c;
      }

      .cls-2 {
        fill: #48d84b;
      }

      .cls-3 {
        fill: #ffd600;
      }

      .cls-4 {
        fill: #13ace8;
      }
    </style>
  </defs>
  <g id="Layer_1-2" data-name="Layer 1">
    <g>
      <g>
        <path class="cls-1" d="M179.94,42.2c-2.65,2.74-5.56,5.33-8.73,7.7-.49.36-.98.73-1.47,1.08-3.8,2.71-7.78,5.02-11.87,6.89-3.63,1.68-7.36,3.01-11.14,4-1.02-3.64-1.75-7.43-2.13-11.32-.22-2.27-.33-4.55-.33-6.82,0-1.89.07-3.78.22-5.66h0c.17-2.17.44-4.37.8-6.55.48-2.84,1.12-5.63,1.9-8.34,3.72.96,7.44,2.25,11.05,3.89h0c4.59,2.08,9.05,4.71,13.26,7.84.49.35.94.7,1.42,1.07,2.47,1.92,4.82,4,6.99,6.21Z"/>
        <path class="cls-4" d="M142.04,22.06c-.79,2.8-1.45,5.67-1.93,8.6-.39,2.33-.68,4.69-.86,7-.22,2.75-.29,5.52-.21,8.28,0,0-.03-.02-.04-.03-.37-.27-.73-.56-1.09-.85-.29-.22-.6-.45-.88-.68-.35-.3-.69-.63-1.03-.93-.29-.26-.59-.51-.86-.78-.08-.08-.17-.17-.28-.27-5.99-5.99-9.32-13.61-9.15-20.72,5.22-.7,10.69-.57,16.32.39Z"/>
        <path class="cls-2" d="M170.3,56.97c-.12,1.99-.49,4.02-1.06,6.03h0c-.97,3.42-2.52,6.67-4.62,9.71-2.31,3.34-5.16,6.2-8.33,8.36-3.24-4.07-5.94-8.9-7.93-14.16,3.97-1.07,7.9-2.5,11.71-4.27,1-.46,1.99-.94,2.98-1.45.31-.16.62-.33.92-.49.69-.36,1.37-.74,2.06-1.13.34-.19.67-.38,1.01-.59.69-.4,1.37-.82,2.05-1.25.29-.19.57-.35.86-.54.11-.07.23-.15.35-.22Z"/>
        <path class="cls-3" d="M192.48,23.55c-1.86,3.43-5.59,10.1-9.05,14.67-2.27-2.27-4.69-4.41-7.24-6.38-.5-.39-1.01-.77-1.53-1.16-3.15-2.33-6.44-4.41-9.82-6.22.11-.06.22-.12.34-.18.61-.3,1.23-.57,1.87-.84.3-.12.6-.26.91-.38.95-.36,1.92-.69,2.92-.98.39-.1.78-.21,1.21-.32,7.2-1.75,14.64-1.07,20.4,1.78Z"/>
        <g>
          <path d="M194.83,52.85c-.21-.03-.43-.05-.64-.05-1.75,0-3.28,1-4.03,2.45.62,1.05,1.2,2.1,1.75,3.16l4.68-2.43c-.55-1.06-1.13-2.11-1.75-3.15ZM150.33,3.2c-.68,1.09-1.33,2.22-1.96,3.36.74,1.49,2.28,2.51,4.05,2.51.21,0,.4,0,.6-.04.56-1.04,1.16-2.05,1.77-3.05l-4.46-2.78ZM127.34,63.78c-1.07-.07-2.15-.19-3.2-.34l-.73,5.22c1.36.19,2.73.33,4.12.42.49-.72.77-1.59.77-2.52,0-1.05-.35-2.02-.96-2.78Z"/>
          <path d="M199.44,21.59l-2.02-1.29c-7.29-4.66-16.98-5.99-26.56-3.65-.47.11-.92.23-1.43.37-1.01.28-1.99.61-2.96.97-.32.11-.62.25-.92.37-.64.25-1.28.52-1.9.81-.35.16-.7.35-1.05.52-.55.28-1.1.56-1.64.87-.35.21-.71.42-1.05.63-.27.16-.55.31-.81.49-3.35-1.45-6.78-2.63-10.22-3.54,1.19-3.18,2.57-6.23,4.16-9.12-.2.03-.39.04-.6.04-1.77,0-3.31-1.02-4.05-2.51-1.8,3.31-3.36,6.81-4.67,10.45-7.24-1.32-14.27-1.4-20.93-.22l-1.92.35-.23,1.94c-1.09,9.24,2.84,19.35,10.53,27.03l.3.3c.65.64,1.33,1.25,2.03,1.85.23.2.47.37.7.56.48.38.95.77,1.44,1.13.29.21.58.4.87.61.46.32.91.63,1.39.92.31.2.63.38.94.57.23.14.46.29.7.43.42,3.6,1.11,7.14,2.05,10.56-4.86.86-9.62,1.11-14.22.75.61.77.96,1.74.96,2.78,0,.93-.28,1.8-.77,2.52,1.28.08,2.57.12,3.86.12,3.86,0,7.8-.39,11.79-1.14,2.52,6.9,6.14,13.16,10.59,18.2l1.42,1.62,1.87-1.08c4.57-2.64,8.68-6.48,11.87-11.1,2.43-3.5,4.24-7.29,5.36-11.25,1.08-3.75,1.51-7.61,1.25-11.26,2.86-2.23,5.54-4.61,7.99-7.12,2.5,2.91,4.71,5.98,6.63,9.18.76-1.46,2.28-2.45,4.03-2.45.21,0,.43.02.64.05-2.2-3.75-4.82-7.35-7.78-10.73,5.29-6.71,11.02-17.88,11.28-18.4l1.09-2.13ZM139.04,45.93s-.03-.02-.04-.03c-.37-.27-.73-.56-1.09-.85-.29-.22-.6-.45-.88-.68-.35-.3-.69-.63-1.03-.93-.29-.26-.59-.51-.86-.78-.08-.08-.17-.17-.28-.27-5.99-5.99-9.32-13.61-9.15-20.72,5.22-.7,10.69-.57,16.32.39-.79,2.8-1.45,5.67-1.93,8.6-.39,2.33-.68,4.69-.86,7-.22,2.75-.29,5.52-.21,8.28ZM169.23,63h0c-.97,3.42-2.52,6.67-4.62,9.71-2.31,3.34-5.16,6.2-8.33,8.36-3.24-4.07-5.94-8.9-7.93-14.16,3.97-1.07,7.9-2.5,11.71-4.27,1-.46,1.99-.94,2.98-1.45.31-.16.62-.33.92-.49.69-.36,1.37-.74,2.06-1.13.34-.19.67-.38,1.01-.59.69-.4,1.37-.82,2.05-1.25.29-.19.57-.35.86-.54.11-.07.23-.15.35-.22-.12,1.99-.49,4.02-1.06,6.03ZM171.21,49.9c-.49.36-.98.73-1.47,1.08-3.8,2.71-7.78,5.02-11.87,6.89-3.63,1.68-7.36,3.01-11.14,4-1.02-3.64-1.75-7.43-2.13-11.32-.22-2.27-.33-4.55-.33-6.82,0-1.89.07-3.78.22-5.66h0c.17-2.17.44-4.37.8-6.55.48-2.84,1.12-5.63,1.9-8.34,3.72.96,7.44,2.25,11.05,3.89h0c4.59,2.08,9.05,4.71,13.26,7.84.49.35.94.7,1.42,1.07,2.47,1.92,4.82,4,6.99,6.21-2.65,2.74-5.56,5.33-8.73,7.7ZM183.43,38.22c-2.27-2.27-4.69-4.41-7.24-6.38-.5-.39-1.01-.77-1.53-1.16-3.15-2.33-6.44-4.41-9.82-6.22.11-.06.22-.12.34-.18.61-.3,1.23-.57,1.87-.84.3-.12.6-.26.91-.38.95-.36,1.92-.69,2.92-.98.39-.1.78-.21,1.21-.32,7.2-1.75,14.64-1.07,20.4,1.78-1.86,3.43-5.59,10.1-9.05,14.67Z"/>
          <path class="cls-4" d="M156.96,4.54c0,2.31-1.71,4.21-3.94,4.5-.2.03-.39.04-.6.04-1.77,0-3.31-1.02-4.05-2.51-.31-.61-.49-1.3-.49-2.03,0-2.5,2.03-4.54,4.54-4.54s4.54,2.03,4.54,4.54Z"/>
          <path class="cls-3" d="M198.74,57.34c0,2.51-2.03,4.54-4.55,4.54s-4.54-2.03-4.54-4.54c0-.75.18-1.46.5-2.08.76-1.46,2.28-2.45,4.03-2.45.21,0,.43.02.64.05,2.2.31,3.9,2.19,3.9,4.49Z"/>
          <path class="cls-2" d="M128.3,66.56c0,.93-.28,1.8-.77,2.52-.8,1.21-2.19,2.02-3.77,2.02-2.5,0-4.54-2.03-4.54-4.54s2.03-4.54,4.54-4.54c1.47,0,2.76.69,3.58,1.75.61.77.96,1.74.96,2.78Z"/>
        </g>
      </g>
      <g>
        <path d="M6.94,48.14c-.21,2.22,2.98,3.37,4.44,1.84.45-.49.69-1.11.69-1.84,0-1.53-1.04-2.64-2.53-2.64s-2.6,1.15-2.6,2.64Z"/>
        <path d="M13.18,48.14c0,1.42,1.11,2.53,2.6,2.53s2.53-1.11,2.53-2.53-1.11-2.64-2.53-2.64c-1.49,0-2.6,1.15-2.6,2.64Z"/>
        <path d="M3.43,40.61c2.29,1.49,5.41,2.22,9.33,2.22s6.8-.76,8.6-1.77c2.77-1.6,3.68-3.89,3.68-5.69,0-1.14-.42-2.15-1.28-3.05-.87-.87-1.8-1.56-2.81-2.01-1.04-.45-1.98-.94-2.84-1.46-.87-.52-1.28-1.01-1.28-1.46,0-.83,1.14-1.46,3.26-1.46.97,0,1.98.14,2.98.38l.87-4.86c-1.39-.35-2.74-.52-4.09-.52-2.6,0-4.65.59-6.14,1.8-1.49,1.21-2.22,2.67-2.22,4.37,0,1.25.45,2.39,1.32,3.4.87,1.04,1.8,1.84,2.84,2.36,1.01.52,1.98,1.04,2.85,1.56.87.52,1.28.94,1.28,1.28,0,1.25-2.46,2.12-7.01,2.12-5,0-7.49-1.7-7.49-5.13,0-.66.14-1.53.38-2.67l-4.72-1.18c-.62,1.87-.94,3.5-.94,4.89,0,3.09,1.14,5.38,3.43,6.87Z"/>
        <path d="M51.9,16.92c1.42,0,2.53-1.11,2.53-2.6s-1.04-2.57-2.53-2.57-2.6,1.08-2.6,2.57,1.11,2.6,2.6,2.6Z"/>
        <path d="M47.49,16.15c.94-.97.94-2.71,0-3.68-.97-.97-2.71-.97-3.68,0-1.01.97-1.01,2.71,0,3.68.97,1.01,2.71,1.01,3.68,0Z"/>
        <path d="M66.43,41.41c0-.76-.21-1.39-.66-1.87-.9-1.01-2.74-1.01-3.68,0-.49.49-.73,1.11-.73,1.87,0,1.49,1.04,2.53,2.57,2.53s2.5-1.04,2.5-2.53Z"/>
        <path d="M93.31,27.95c0,2.77-.66,3.68-3.02,3.68h-4.23c1.42-1.91,2.15-3.75,2.15-5.52,0-3.3-2.71-5.17-7.11-5.17-2.88,0-5.65.62-8.33,1.87-.38.94-.73,2.5-.97,4.65,1.18.9,2.43,2.29,3.75,4.16h-5.51c-2.05,0-3.09-1.08-3.09-3.19v-7.11h-5.13v6.63c0,1.49-.21,2.5-.59,2.95-.42.49-1.21.73-2.43.73h-2.88c.76-1.18,1.14-2.43,1.14-3.71,0-1.91-.73-3.54-2.19-4.93-1.49-1.35-3.5-2.05-6.07-2.05s-4.68.69-6.18,2.12c-1.49,1.42-2.26,3.12-2.26,5.07,0,1.28.31,2.46.97,3.5h-5.93v-10.3h-5.13v13.67c0,2.26-1.04,3.09-3.99,3.4l.62,4.34c5.13-.24,7.77-2.22,8.36-6.63h7.25c1.77,0,3.78-.14,5.97-.45,2.05.31,4.2.45,6.42.45h3.89c3.16,0,5.31-.63,6.48-1.87.9,1.25,2.5,1.87,4.75,1.87h1.11c3.71,0,6.73-.24,9.02-.69,2.05.45,4.41.69,7.11.69h3.02c2.88,0,4.96-.55,6.24-1.63,1.28-1.08,1.91-3.05,1.91-5.9V9.87h-5.13v18.08ZM50.79,30.55c-.76.66-1.46,1.01-2.12,1.04-.66-.1-1.32-.49-2.05-1.14-.73-.66-1.11-1.39-1.11-2.19,0-1.56,1.32-2.67,3.23-2.67s3.16,1.18,3.16,2.71c0,.87-.38,1.6-1.11,2.26ZM80.62,30.93c-.83-1.63-2.12-3.26-3.85-4.82l.03-.14c.9-.24,1.94-.38,3.16-.38,2.12,0,3.12.76,3.12,1.84,0,1.14-.97,2.71-2.46,3.5Z"/>
        <rect x="102.47" y="9.87" width="5.13" height="26.23"/>
      </g>
      <g>
        <path d="M13.11,81.16c-.52.52-.76,1.14-.76,1.87,0,1.42,1.11,2.53,2.6,2.53s2.53-1.04,2.53-2.53c.21-2.32-2.88-3.5-4.37-1.87Z"/>
        <path d="M21.2,80.4c-1.49,0-2.6,1.14-2.6,2.64s1.11,2.53,2.6,2.53,2.53-1.11,2.53-2.53c0-1.49-1.11-2.64-2.53-2.64Z"/>
        <path d="M37.01,57.78c.45-.49.66-1.11.66-1.84,0-1.53-.97-2.57-2.5-2.57s-2.57,1.04-2.57,2.57c0,.73.24,1.35.73,1.84.94,1.01,2.78,1.01,3.68,0Z"/>
        <path d="M93.31,69.58c0,2.77-.66,3.68-3.02,3.68h-1.97c.03-.73.07-1.28.07-1.6,0-5.73-3.02-9.09-8.4-9.09-1.84,0-3.75.45-6.28,1.84s-5.31,4.51-7.39,8.85c-1.53-.03-1.84-.56-1.84-1.98v-5.79h-5.13v4.68c0,1.39-.14,2.26-.38,2.57-.24.35-14.3.52-15.34.52h-3.15c1.42-1.91,2.15-3.75,2.15-5.52,0-3.3-2.71-5.17-7.11-5.17-2.88,0-5.65.62-8.33,1.87-.38.94-.73,2.5-.97,4.65,1.18.9,2.43,2.29,3.75,4.16h-5.52c-2.05,0-3.09-1.08-3.09-3.19v-7.11h-5.13v6.63c0,1.49-.21,2.46-.62,2.95-.45.49-1.35.73-2.74.73h-3.75v-10.3H3.99v13.67c0,2.26-1.04,3.09-3.99,3.4l.62,4.34c5.13-.24,7.77-2.22,8.36-6.63h4.02c3.23,0,5.48-.62,6.7-1.87.9,1.25,2.5,1.87,4.75,1.87h1.11c3.71,0,6.73-.24,9.02-.69,2.05.45,4.41.69,7.11.69h3.02s.03,0,.05,0c4.46-.06,17.01-.4,17.92-1.03,1.25.69,2.81,1.04,4.68,1.04h22.93c2.88,0,4.96-.56,6.24-1.63,1.28-1.08,1.91-3.05,1.91-5.9v-18.7h-5.13v18.08ZM35.04,72.56c-.83-1.63-2.12-3.26-3.85-4.82l.03-.14c.9-.24,1.94-.38,3.16-.38,2.12,0,3.12.76,3.12,1.84,0,1.14-.97,2.71-2.46,3.5ZM83.29,73.25h-11.21c1.84-3.71,4.58-6.04,7.18-6.04s4.09,1.84,4.09,4.89c0,.21-.03.59-.07,1.14Z"/>
        <rect x="102.47" y="51.5" width="5.13" height="26.23"/>
      </g>
    </g>
  </g>
</svg>