<?xml version="1.0" encoding="UTF-8"?>
<svg id="Layer_2" data-name="Layer 2" xmlns="http://www.w3.org/2000/svg" viewBox="0 0 226.9 40.8">
  <defs>
    <style>
      .cls-1 {
        fill: #fff;
      }
    </style>
  </defs>
  <g id="Layer_1-2" data-name="Layer 1">
    <g>
      <g>
        <path class="cls-1" d="M13.11,29.66c-.52.52-.76,1.14-.76,1.87,0,1.42,1.11,2.53,2.6,2.53s2.53-1.04,2.53-2.53c.21-2.32-2.88-3.5-4.37-1.87Z"/>
        <path class="cls-1" d="M21.2,28.9c-1.49,0-2.6,1.14-2.6,2.64s1.11,2.53,2.6,2.53,2.53-1.11,2.53-2.53c0-1.49-1.11-2.64-2.53-2.64Z"/>
        <path class="cls-1" d="M37.01,6.28c.45-.49.66-1.11.66-1.84,0-1.53-.97-2.57-2.5-2.57s-2.57,1.04-2.57,2.57c0,.73.24,1.35.73,1.84.94,1.01,2.78,1.01,3.68,0Z"/>
        <path class="cls-1" d="M93.31,18.08c0,2.77-.66,3.68-3.02,3.68h-1.97c.03-.73.07-1.28.07-1.6,0-5.73-3.02-9.09-8.4-9.09-1.84,0-3.75.45-6.28,1.84-2.53,1.39-5.31,4.51-7.39,8.85-1.53-.03-1.84-.56-1.84-1.98v-5.79h-5.13v4.68c0,1.39-.14,2.26-.38,2.57-.24.35-14.3.52-15.34.52h-3.15c1.42-1.91,2.15-3.75,2.15-5.52,0-3.3-2.71-5.17-7.11-5.17-2.88,0-5.65.62-8.33,1.87-.38.94-.73,2.5-.97,4.65,1.18.9,2.43,2.29,3.75,4.16h-5.52c-2.05,0-3.09-1.08-3.09-3.19v-7.11h-5.13v6.63c0,1.49-.21,2.46-.62,2.95-.45.49-1.35.73-2.74.73h-3.75v-10.3H3.99v13.67c0,2.26-1.04,3.09-3.99,3.4l.62,4.34c5.13-.24,7.77-2.22,8.36-6.63h4.02c3.23,0,5.48-.62,6.7-1.87.9,1.25,2.5,1.87,4.75,1.87h1.11c3.71,0,6.73-.24,9.02-.69,2.05.45,4.41.69,7.11.69h3.02s.03,0,.05,0c4.46-.06,17.01-.4,17.92-1.03,1.25.69,2.81,1.04,4.68,1.04h22.93c2.88,0,4.96-.56,6.24-1.63,1.28-1.08,1.91-3.05,1.91-5.9V0h-5.13v18.08ZM35.04,21.06c-.83-1.63-2.12-3.26-3.85-4.82l.03-.14c.9-.24,1.94-.38,3.16-.38,2.12,0,3.12.76,3.12,1.84,0,1.14-.97,2.71-2.46,3.5ZM83.29,21.75h-11.21c1.84-3.71,4.58-6.04,7.18-6.04s4.09,1.84,4.09,4.89c0,.21-.03.59-.07,1.14Z"/>
        <rect class="cls-1" x="102.47" width="5.13" height="26.23"/>
      </g>
      <g>
        <path class="cls-1" d="M126.23,38.27c-.21,2.22,2.98,3.37,4.44,1.84.45-.49.69-1.11.69-1.84,0-1.53-1.04-2.64-2.53-2.64s-2.6,1.15-2.6,2.64Z"/>
        <path class="cls-1" d="M132.48,38.27c0,1.42,1.11,2.53,2.6,2.53s2.53-1.11,2.53-2.53-1.11-2.64-2.53-2.64c-1.49,0-2.6,1.15-2.6,2.64Z"/>
        <path class="cls-1" d="M122.73,30.74c2.29,1.49,5.41,2.22,9.33,2.22s6.8-.76,8.6-1.77c2.77-1.6,3.68-3.89,3.68-5.69,0-1.14-.42-2.15-1.28-3.05-.87-.87-1.8-1.56-2.81-2.01-1.04-.45-1.98-.94-2.84-1.46-.87-.52-1.28-1.01-1.28-1.46,0-.83,1.14-1.46,3.26-1.46.97,0,1.98.14,2.98.38l.87-4.86c-1.39-.35-2.74-.52-4.09-.52-2.6,0-4.65.59-6.14,1.8-1.49,1.21-2.22,2.67-2.22,4.37,0,1.25.45,2.39,1.32,3.4.87,1.04,1.8,1.84,2.84,2.36,1.01.52,1.98,1.04,2.85,1.56.87.52,1.28.94,1.28,1.28,0,1.25-2.46,2.12-7.01,2.12-5,0-7.49-1.7-7.49-5.13,0-.66.14-1.53.38-2.67l-4.72-1.18c-.62,1.87-.94,3.5-.94,4.89,0,3.09,1.14,5.38,3.43,6.87Z"/>
        <path class="cls-1" d="M171.19,7.04c1.42,0,2.53-1.11,2.53-2.6s-1.04-2.57-2.53-2.57-2.6,1.08-2.6,2.57,1.11,2.6,2.6,2.6Z"/>
        <path class="cls-1" d="M166.78,6.28c.94-.97.94-2.71,0-3.68-.97-.97-2.71-.97-3.68,0-1.01.97-1.01,2.71,0,3.68.97,1.01,2.71,1.01,3.68,0Z"/>
        <path class="cls-1" d="M185.72,31.54c0-.76-.21-1.39-.66-1.87-.9-1.01-2.74-1.01-3.68,0-.49.49-.73,1.11-.73,1.87,0,1.49,1.04,2.53,2.57,2.53s2.5-1.04,2.5-2.53Z"/>
        <path class="cls-1" d="M212.61,18.08c0,2.77-.66,3.68-3.02,3.68h-4.23c1.42-1.91,2.15-3.75,2.15-5.52,0-3.3-2.71-5.17-7.11-5.17-2.88,0-5.65.62-8.33,1.87-.38.94-.73,2.5-.97,4.65,1.18.9,2.43,2.29,3.75,4.16h-5.51c-2.05,0-3.09-1.08-3.09-3.19v-7.11h-5.13v6.63c0,1.49-.21,2.5-.59,2.95-.42.49-1.21.73-2.43.73h-2.88c.76-1.18,1.14-2.43,1.14-3.71,0-1.91-.73-3.54-2.19-4.93-1.49-1.35-3.5-2.05-6.07-2.05s-4.68.69-6.18,2.12c-1.49,1.42-2.26,3.12-2.26,5.07,0,1.28.31,2.46.97,3.5h-5.93v-10.3h-5.13v13.67c0,2.26-1.04,3.09-3.99,3.4l.62,4.34c5.13-.24,7.77-2.22,8.36-6.63h7.25c1.77,0,3.78-.14,5.97-.45,2.05.31,4.2.45,6.42.45h3.89c3.16,0,5.31-.63,6.48-1.87.9,1.25,2.5,1.87,4.75,1.87h1.11c3.71,0,6.73-.24,9.02-.69,2.05.45,4.41.69,7.11.69h3.02c2.88,0,4.96-.55,6.24-1.63,1.28-1.08,1.91-3.05,1.91-5.9V0h-5.13v18.08ZM170.08,20.68c-.76.66-1.46,1.01-2.12,1.04-.66-.1-1.32-.49-2.05-1.14-.73-.66-1.11-1.39-1.11-2.19,0-1.56,1.32-2.67,3.23-2.67s3.16,1.18,3.16,2.71c0,.87-.38,1.6-1.11,2.26ZM199.91,21.06c-.83-1.63-2.12-3.26-3.85-4.82l.03-.14c.9-.24,1.94-.38,3.16-.38,2.12,0,3.12.76,3.12,1.84,0,1.14-.97,2.71-2.46,3.5Z"/>
        <rect class="cls-1" x="221.77" width="5.13" height="26.23"/>
      </g>
    </g>
  </g>
</svg>