<?xml version="1.0" encoding="UTF-8"?>
<svg id="Layer_2" data-name="Layer 2" xmlns="http://www.w3.org/2000/svg" viewBox="0 0 80.21 87.89">
  <defs>
    <style>
      .cls-1 {
        fill: #fff;
      }

      .cls-2 {
        fill: #e9123c;
      }

      .cls-3 {
        fill: #48d84b;
      }

      .cls-4 {
        fill: #ffd600;
      }

      .cls-5 {
        fill: #13ace8;
      }
    </style>
  </defs>
  <g id="Layer_1-2" data-name="Layer 1">
    <g>
      <path class="cls-2" d="M60.72,42.2c-2.65,2.74-5.56,5.33-8.73,7.7-.49.36-.98.73-1.47,1.08-3.8,2.71-7.78,5.02-11.87,6.89-3.63,1.68-7.36,3.01-11.14,4-1.02-3.64-1.75-7.43-2.13-11.32-.22-2.27-.33-4.55-.33-6.82,0-1.89.07-3.78.22-5.66h0c.17-2.17.44-4.37.8-6.55.48-2.84,1.12-5.63,1.9-8.34,3.72.96,7.44,2.25,11.05,3.89h0c4.59,2.08,9.05,4.71,13.26,7.84.49.35.94.7,1.42,1.07,2.47,1.92,4.82,4,6.99,6.21Z"/>
      <path class="cls-5" d="M22.82,22.06c-.79,2.8-1.45,5.67-1.93,8.6-.39,2.33-.68,4.69-.86,7-.22,2.75-.29,5.52-.21,8.28,0,0-.03-.02-.04-.03-.37-.27-.73-.56-1.09-.85-.29-.22-.6-.45-.88-.68-.35-.3-.69-.63-1.03-.93-.29-.26-.59-.51-.86-.78-.08-.08-.17-.17-.28-.27-5.99-5.99-9.32-13.61-9.15-20.72,5.22-.7,10.69-.57,16.32.39Z"/>
      <path class="cls-3" d="M51.07,56.97c-.12,1.99-.49,4.02-1.06,6.03h0c-.97,3.42-2.52,6.67-4.62,9.71-2.31,3.34-5.16,6.2-8.33,8.36-3.24-4.07-5.94-8.9-7.93-14.16,3.97-1.07,7.9-2.5,11.71-4.27,1-.46,1.99-.94,2.98-1.45.31-.16.62-.33.92-.49.69-.36,1.37-.74,2.06-1.13.34-.19.67-.38,1.01-.59.69-.4,1.37-.82,2.05-1.25.29-.19.57-.35.86-.54.11-.07.23-.15.35-.22Z"/>
      <path class="cls-4" d="M73.26,23.55c-1.86,3.43-5.59,10.1-9.05,14.67-2.27-2.27-4.69-4.41-7.24-6.38-.5-.39-1.01-.77-1.53-1.16-3.15-2.33-6.44-4.41-9.82-6.22.11-.06.22-.12.34-.18.61-.3,1.23-.57,1.87-.84.3-.12.6-.26.91-.38.95-.36,1.92-.69,2.92-.98.39-.1.78-.21,1.21-.32,7.2-1.75,14.64-1.07,20.4,1.78Z"/>
      <g>
        <path class="cls-1" d="M75.61,52.85c-.21-.03-.43-.05-.64-.05-1.75,0-3.28,1-4.03,2.45.62,1.05,1.2,2.1,1.75,3.16l4.68-2.43c-.55-1.06-1.13-2.11-1.75-3.15ZM31.11,3.2c-.68,1.09-1.33,2.22-1.96,3.36.74,1.49,2.28,2.51,4.05,2.51.21,0,.4,0,.6-.04.56-1.04,1.16-2.05,1.77-3.05l-4.46-2.78ZM8.12,63.78c-1.07-.07-2.15-.19-3.2-.34l-.73,5.22c1.36.19,2.73.33,4.12.42.49-.72.77-1.59.77-2.52,0-1.05-.35-2.02-.96-2.78Z"/>
        <path class="cls-1" d="M80.21,21.59l-2.02-1.29c-7.29-4.66-16.98-5.99-26.56-3.65-.47.11-.92.23-1.43.37-1.01.28-1.99.61-2.96.97-.32.11-.62.25-.92.37-.64.25-1.28.52-1.9.81-.35.16-.7.35-1.05.52-.55.28-1.1.56-1.64.87-.35.21-.71.42-1.05.63-.27.16-.55.31-.81.49-3.35-1.45-6.78-2.63-10.22-3.54,1.19-3.18,2.57-6.23,4.16-9.12-.2.03-.39.04-.6.04-1.77,0-3.31-1.02-4.05-2.51-1.8,3.31-3.36,6.81-4.67,10.45-7.24-1.32-14.27-1.4-20.93-.22l-1.92.35-.23,1.94c-1.09,9.24,2.84,19.35,10.53,27.03l.3.3c.65.64,1.33,1.25,2.03,1.85.23.2.47.37.7.56.48.38.95.77,1.44,1.13.29.21.58.4.87.61.46.32.91.63,1.39.92.31.2.63.38.94.57.23.14.46.29.7.43.42,3.6,1.11,7.14,2.05,10.56-4.86.86-9.62,1.11-14.22.75.61.77.96,1.74.96,2.78,0,.93-.28,1.8-.77,2.52,1.28.08,2.57.12,3.86.12,3.86,0,7.8-.39,11.79-1.14,2.52,6.9,6.14,13.16,10.59,18.2l1.42,1.62,1.87-1.08c4.57-2.64,8.68-6.48,11.87-11.1,2.43-3.5,4.24-7.29,5.36-11.25,1.08-3.75,1.51-7.61,1.25-11.26,2.86-2.23,5.54-4.61,7.99-7.12,2.5,2.91,4.71,5.98,6.63,9.18.76-1.46,2.28-2.45,4.03-2.45.21,0,.43.02.64.05-2.2-3.75-4.82-7.35-7.78-10.73,5.29-6.71,11.02-17.88,11.28-18.4l1.09-2.13ZM19.82,45.93s-.03-.02-.04-.03c-.37-.27-.73-.56-1.09-.85-.29-.22-.6-.45-.88-.68-.35-.3-.69-.63-1.03-.93-.29-.26-.59-.51-.86-.78-.08-.08-.17-.17-.28-.27-5.99-5.99-9.32-13.61-9.15-20.72,5.22-.7,10.69-.57,16.32.39-.79,2.8-1.45,5.67-1.93,8.6-.39,2.33-.68,4.69-.86,7-.22,2.75-.29,5.52-.21,8.28ZM50.01,63h0c-.97,3.42-2.52,6.67-4.62,9.71-2.31,3.34-5.16,6.2-8.33,8.36-3.24-4.07-5.94-8.9-7.93-14.16,3.97-1.07,7.9-2.5,11.71-4.27,1-.46,1.99-.94,2.98-1.45.31-.16.62-.33.92-.49.69-.36,1.37-.74,2.06-1.13.34-.19.67-.38,1.01-.59.69-.4,1.37-.82,2.05-1.25.29-.19.57-.35.86-.54.11-.07.23-.15.35-.22-.12,1.99-.49,4.02-1.06,6.03ZM51.99,49.9c-.49.36-.98.73-1.47,1.08-3.8,2.71-7.78,5.02-11.87,6.89-3.63,1.68-7.36,3.01-11.14,4-1.02-3.64-1.75-7.43-2.13-11.32-.22-2.27-.33-4.55-.33-6.82,0-1.89.07-3.78.22-5.66h0c.17-2.17.44-4.37.8-6.55.48-2.84,1.12-5.63,1.9-8.34,3.72.96,7.44,2.25,11.05,3.89h0c4.59,2.08,9.05,4.71,13.26,7.84.49.35.94.7,1.42,1.07,2.47,1.92,4.82,4,6.99,6.21-2.65,2.74-5.56,5.33-8.73,7.7ZM64.21,38.22c-2.27-2.27-4.69-4.41-7.24-6.38-.5-.39-1.01-.77-1.53-1.16-3.15-2.33-6.44-4.41-9.82-6.22.11-.06.22-.12.34-.18.61-.3,1.23-.57,1.87-.84.3-.12.6-.26.91-.38.95-.36,1.92-.69,2.92-.98.39-.1.78-.21,1.21-.32,7.2-1.75,14.64-1.07,20.4,1.78-1.86,3.43-5.59,10.1-9.05,14.67Z"/>
        <path class="cls-5" d="M37.74,4.54c0,2.31-1.71,4.21-3.94,4.5-.2.03-.39.04-.6.04-1.77,0-3.31-1.02-4.05-2.51-.31-.61-.49-1.3-.49-2.03,0-2.5,2.03-4.54,4.54-4.54s4.54,2.03,4.54,4.54Z"/>
        <path class="cls-4" d="M79.51,57.34c0,2.51-2.03,4.54-4.55,4.54s-4.54-2.03-4.54-4.54c0-.75.18-1.46.5-2.08.76-1.46,2.28-2.45,4.03-2.45.21,0,.43.02.64.05,2.2.31,3.9,2.19,3.9,4.49Z"/>
        <path class="cls-3" d="M9.08,66.56c0,.93-.28,1.8-.77,2.52-.8,1.21-2.19,2.02-3.77,2.02-2.5,0-4.54-2.03-4.54-4.54s2.03-4.54,4.54-4.54c1.47,0,2.76.69,3.58,1.75.61.77.96,1.74.96,2.78Z"/>
      </g>
    </g>
  </g>
</svg>